<?xml version="1.0" encoding="utf-8"?>
<!-- Generator: Adobe Illustrator 26.2.0, SVG Export Plug-In . SVG Version: 6.00 Build 0)  -->
<svg version="1.1" id="Layer_1" xmlns="http://www.w3.org/2000/svg" xmlns:xlink="http://www.w3.org/1999/xlink" x="0px" y="0px"
	 viewBox="0 0 6391.16 2061.86" style="enable-background:new 0 0 6391.16 2061.86;" xml:space="preserve">
<style type="text/css">
	.st0{fill:#12100B;}
	.st1{fill:#01617D;}
</style>
<g>
	<g>
		<path class="st0" d="M5708.79,370.49c-5.42-10.2-12.9-19.55-17.06-30.87c-3.49-9.46-7.07-15.1-9.67-23.01
			c-1.13-3.39-0.64-6.77-3.33-9.28c-0.94,1.31,0.3,4.09,0.55,6.28c-2.73,11.22-9.95,26.57-5.96,41.67
			c1.48,5.72,6.53,12.7,8.86,18.95c2.51,6.77,5.4,9.53,9.7,12.32c12.95-0.81,24.21,0.99,34.69,3.95c-4.13-4.9-8.33-9.67-11.26-16.34
			C5712.64,373.7,5711.33,371.19,5708.79,370.49 M6200.31,81.08H4830.59c-108.55,0-108.55,103.77-108.55,103.77v626.66
			c0,103.77,108.55,103.77,108.55,103.77h1369.72c108.57,0,108.57-103.77,108.57-103.77V184.85
			C6308.88,81.08,6200.31,81.08,6200.31,81.08 M6156.03,682.16c-2.93,8.96-6.88,18.07-10.44,26.92
			c-3.58,8.75-7.25,17.33-11.41,25.65c-7.87,16.13-19.94,31.62-30.93,46.58c-7.82,10.59-18.07,20.5-27.06,30.13
			c-3.3,3.42-6.23,7.83-9.44,10.34c-2.04,1.59-5.12,3.14-7.62,4.97c-4.52,3.28-9.26,7.2-14.5,10.66c-7.8,5.26-15.38,5.61-27.59,6.07
			c-5.82,0.18-12.42,0.81-17.18,0.46c-2.12-0.18-3.78-1.3-6.07-1.62c-6.67-0.99-13.92-0.28-20.61-1.77
			c-17.04-10.06-34.12-20.08-51.41-29.85c-1.39-3.56-4.16-6.77-7.22-10.69c-2.2-2.89-5.96-5.72-7.59-9.21
			c-1.43-2.89-1.82-7.9-3.19-12.14c-3.35-10.3-6.7-19.58-11.5-28.37c-1.69-3.14-4.62-10.87-4.75-16.16
			c-0.07-5.68,3.33-11.89,4.46-17.22c0.35-1.69,0.11-3.6,0.46-5.12c0.78-3.46,2.59-7.55,3.32-12c-0.46-1.59-1.62-6.85-3.6-10.66
			c-4.11-4.06-7.92-0.25-10.52-5.75c-4.82-10.2,10.34-16.06,9.03-26.68c-0.46-3.49-2.93-5.5-4.97-10.41
			c3.99-6.88,10.13-12.03,14.11-19.12c4.41-7.76,6.17-17.33,11.52-24.98c0.44-6.85,3.44-15,1.71-23.78
			c-1.78-8.68-9.12-19.83-11.68-29.04c-2.4-8.79-1.37-14.71-9.4-18.07c-6.77-1.06-17.61,5.05-19.55,10.13
			c-0.69,1.69,0.02,6.28-0.26,9.31c-0.42,3.6-1.17,9.67-1.39,14.5c0.34,3.49-4.22,0.64-2.81,4.09c-1.23,2.22,0.85,5.33,1.52,7.55
			c-3.46,1.94-1.78,6.25-3.03,9.84c-1.2,3.25-3.92,6.85-5.86,10.37c-4.48,8.08-10.21,17.08-16.65,24.56
			c-4.11,4.73-6.85,11.01-9.56,16.8c-2.12,4.48-4.23,9.07-5.33,13.09c-7.25,26.99,11.15,49.79,24.7,75.58
			c4.02,3.74,9.46,7.73,13.43,13.09c2.56,3.42,4.75,9.14,7.89,14.11c3.12,4.87,7.41,9.39,8.63,13.94c0.97,3.67-0.41,9.77,0.23,15.6
			c0.44,4.02,2.4,8.08,2.33,11.64c-0.04,4.66-5.84,19.69-12.44,13.06c-2.67-2.65-2.63-9.1-4.85-13.27
			c-0.25-0.46-1.59-0.95-1.62-1.09c-2.74-6.6-4.48-14.26-7.81-20.54c-1.78-3.39-4.99-7.27-7.32-11.36
			c-5.61-9.91-10.9-15.03-18.88-21.95c-2.08-1.84-4.02-3.28-6.07-5.26c-5.24-4.94-10.9-11.15-15.84-17.57
			c-3.42-4.48-5.68-9.98-9.28-13.87c-0.42-0.46-1.06,0.46-1.54-0.39c-2.17-4.34-10.41-5.75-11.93-12.6
			c-0.71-3.46,2.56-8.12,2.66-11.93c0.14-4.27-1.27-9.77-1.52-14.64c-0.25-4.87-1.59-10.34-1.48-14.64c0-5.15,3.92-11.33,5.65-18.14
			c1.87-7.3,2.08-15.14,3.9-19.97c0.26-0.71,1.29-1.59,1.67-2.47c0.25-0.64,0.07-2.54,1.66-2.44c1.38-2.05,2.61-2.4,1.96-4.69
			c-3.71-1.06-5.26,3.32-7.48,5.79c-2.14,2.29-4.04,4.62-6.55,6.92c-3.07,2.89-6.39,4.83-8.29,8.72
			c-1.98,3.99-2.82,10.48-4.08,15.74c-0.9,3.99-1.25,7.45-2.06,11.08c-0.81,3.35-0.23,11.19,0.25,15.56
			c0.71,6.46,3.46,14.18,5.29,18.88c3.99,10.34,13.71,19.83,19.51,28.97c1.04,1.62,2.08,3.35,3.18,5.08
			c1.02,1.62,1.54,3.56,2.54,5.19c0.81,1.34,2.98,2.89,3.7,4.27c0.99,1.73,1.48,3.49,2.47,5.22c1.98,3.28,3.71,6.99,5.72,10.27
			c4.3,7.06,9.88,13.48,11.2,19.87c2.31,10.8-4.92,17.29,0.3,29.78c-0.53,2.47-2.4,3.99-3.09,6.35c1.6,3.63,3.03,9.35,0.44,12.63
			c-8.93,1.24-18.17,0.57-21.51-6.46c-2.88-5.96-2.33-15.74-4.46-21.91c-0.42-1.23-2.42-1.69-1.38-3.25
			c-5.89-6.21-12.97-10.97-16.51-17.43c-4.73-8.89-8.4-21.63-16.02-33.2c-7.53-11.36-17.5-20.11-22.48-32.6
			c-0.97-2.47-0.6-4.76-1.38-6.85c-0.62-1.73-1.9-3.07-2.36-4.55c-1.06-3.63-1.08-8.01-2.33-11.57c-2.29-6.46-5.79-17.5-7.06-27.84
			c-13.16,1.52-23.92-1.76-38.18,3.88c-1.94,1.83-3.49,3.99-6.12,5.43c-1.85,5.36-3.81,11.65-5.56,18.81
			c-0.39,1.73,0.37,3.99-0.25,5.79c-1.11,3.07-5.61,9.35-5.29,13.12c0.14,1.98,1.62,2.79,2.47,5.19c2.33,6.35,3.16,11.5,4.85,16.8
			c3.81,11.96,7.34,20.75,11.22,34.16c1.11,3.77,2.98,8.01,3.07,11.47c0.07,2.82-1.85,7.27-2.91,10.52
			c-1.13,3.42-2.01,7.55-3.07,9.84c-3.25,6.92-11.26,11.64-15.7,18.67c-2.61,4.16-3.21,8.64-5.96,13.27
			c-4.82-0.07-6.42,5.54-11.68,6.53c-8.68,1.66-13.87-7.02-12.62-16.06c0.23-1.41,1.32-5.15,1.71-6c1.62-4.06,6.44-6.46,8.72-10.23
			c-0.07,0.07,1.34-4.31,1.83-5.33c3.42-8.15,2.56-17.33-2.63-27.24c-2.24-4.27-6.02-8.04-8.45-13.27
			c-3.47-7.52-4.73-16.73-7.9-24.84c-0.05-0.14-1.09-1.48-0.97-1.24c-2.52-5.29-8.15-12.81-9.56-18.74
			c-0.9-3.88,0.16-7.37-0.14-11.33c-0.51-7.06-2.63-11.15-0.41-16.3c-9.1-0.11-14.79-3.74-24.7-0.95
			c-3.74,1.09-7.76,4.16-11.61,6.56c-7.9,4.87-12.99,7.09-17.68,12.67c-0.81,0.99-1.06,2.86-2.1,3.99
			c-2.24,2.47-2.79,1.87-4.04,4.98c-0.48,1.45-2.57,4.38-3,6.28c-0.81,3.39-0.62,10.06-0.28,12.88c1.55,13.8,10.2,28.72,12.42,43.82
			c1.08,7.02,0.71,15.77,0.34,22.73c-0.28,3.67-7.11,9.56-10.43,12.63c-4.09,3.74-7.69,10.73-13.09,13.9
			c-3.18,1.87-7.83,2.26-12.21,3.81c-1.89,0.67-3,1.91-5.26,2.47c-2.03,0.49-4.02,0.63-6.25,1.16c-6.85-2.72-5.96-15.49-5.96-22.3
			c5.01-4.06,8.57-9,17.33-10.48c3.3-4.13,4.66-9.63,7.25-14.19c-0.51-12.91-0.37-21.21-6.97-27.1
			c-5.68-5.22-17.94-12.7-21.42-20.75c-1.68-3.88-0.85-8.26-3.35-12.88c0.28-2.4,5.13-1.77,4.9-4.48
			c-3.3-10.62,1.34-16.12,0.67-25.02c5.72-5.54,9.54-12.28,14.33-18.42c8.5-2.93,13.96-8.89,22.72-12.24
			c1.41-0.53,5.12,0.42,5.26-2.44c-0.74-3.6-4.25-7.76-7.62-9.17c-4.09-1.76-15.81-1.52-21.17-1.62
			c-7.87-0.14-15.74-0.49-22.23,0.78c-2.54-0.14-3.46-2.61-6.25-2.36c-4.11,1.73-8.01,1.31-13.59,0.46
			c-2.42-0.32-5.26-1.41-7.52-1.34c-6.26,0.07-10.99,1.73-17.02,1.16c-4.85-0.53-9.77-1.66-14.98-2.79
			c-11.61-2.65-25.7-4.76-36.91-7.83c-6.14-4.83-13.32-8.19-18.7-14.11c-2.68,0.95-0.77-4.76-3.63-3.6
			c-6.12-2.08-12.56-4.38-19.51-4.06c-3.37,0.18-6.32,1.55-9.74,1.91c-5.05,0.57-10.88-0.42-16.55,0.35
			c-12.07,1.69-28.69,7.3-40.35,3.56c-5.12-1.62-10.88-10.69-16.5-10.3c-5.03,0.28-8.64,5.36-12.31,6.67
			c-6.32,2.05-13.59,1.45-18.61,0.74c-2.14-0.32-4.6,0.46-8.56,0.18c-2.47-0.14-5.68-1.45-8.36-1.94c-2.96-0.49-6.17-0.6-8.86-1.13
			c-5.19-0.88-9.81-3.53-14.59-4.23c-2.2-0.32-4.89,0.81-7.09,0.6c-4.25-0.28-13.81-2.5-18.9-4.13c-4.66-1.59-8.61-5.12-12.84-6.77
			c-4.08-1.52-8.86-2.4-13.05-3.85c-4.31-1.52-8.63-3.95-12.53-4.69c-6.28-1.27-13.69,0.56-20.36-1.02
			c-3.95-0.95-8.64-4.45-11.63-7.73c-2.84-3.18-3.99-6.99-7.07-10.06c-13.62,5.82-21.49,1.38-34.68,3.18
			c-15.6-6.56-30.94-11.78-41.74-24.59c-1.98-2.33-2.98-5.4-5.12-7.55c-3.28-3.35-7.89-5.19-11.66-7.69
			c-3.3-8.19-11.87-11.29-18.4-16.41c-4.87-3.67-9.24-7.97-13.88-11.5c-4.89-3.67-9.44-7.73-14.59-11.4
			c-4.73-3.39-10.48-6.77-14.43-10.76c-7.8-7.76-12.38-17.68-20.47-26.57c-2.93-2.19-5.75-4.2-8.5-6.17
			c-2.65-1.98-5.86-3.6-8.47-6.21c-4.09-4.09-7.46-12.88-14.01-12.21c-3.49,0.32-7.41,4.34-10.09,6.95c-2.96,2.82-3.95,6-8.06,6.49
			c-12.44,1.66-14.7-18-15.51-30.38c-1.15-17.5-6.46-39.48-12.77-55.86c-2.61-6.92-7.37-15.98-1.75-23.11
			c6.19-3.35,11.45,1.55,17.03,2.4c3.63,0.49,7.6-0.85,11.57-0.14c5.12,0.95,10.76,4.27,17.06,5.96c5.8,1.55,12.16,2.93,17.43,4.45
			c9.44,2.65,26.27,6.49,29.69,14.86c2.59,6.42-0.74,12.63,0.95,19.05c1.09,4.06,5.82,10.48,8.89,15.31
			c4.83,7.59,9.77,12.56,16.34,16.76c4.59,3,9.7,7.94,14.99,9.92c4.38,1.62,9.32,1.59,13.57,3.03c1.27,0.42,2.03,2.22,3.51,2.89
			c1.87,0.85,3.24,0.32,4.53,1.27c2.03,1.41,3.35,4.45,4.89,6.14c4.94,5.57,10.46,11.08,16.87,15.95
			c3.94,9.07,9.77,15.17,14.7,22.72c7.34,3.71,15.12,0.32,22.11,2.15c3.71,0.99,6.23,4.62,10.52,5.79c3.46,0.92,5.54,0.46,9.54,1.02
			c2.01,1.8,3.33,4.52,5.56,6.03c7,1.52,12.47,5.86,18.6,9.95c5.43,3.56,12.99,6.46,17.36,10.8c0.57,0.6,0.88,3.14,1.48,3.99
			c0.99,1.31,2.47,1.77,3.49,2.89c1.8,2.05,3.09,5.15,6.23,5.89c10.85,1.13,19.92-2.5,29.27-1.41c4.09,0.49,9.35,4.48,13.44,5.96
			c4.9,1.8,9.24,1.45,13.62,3.07c0.76,4.48,3.35,6.21,5.38,8.93c11.45,2.79,22.63-2.01,34.1-2.36c3.21-0.11,7.09,1.8,10.58,2.22
			c3.74,0.46,6.85,0.32,10.27,0.85c7.52,1.2,14.87,2.68,22.19,2.82c4.41,2.33,3.9,6.46,9.98,6.56c6.69,0.14,13.83-6.95,19.41-3.74
			c7.67-4.8,19.85-0.99,25.55-5.61c9.46,5.26,24.19,2.75,33.41,8.4c3.35-1.59,4.5-7.44,7.87-10.73c4-0.28,3.19,6.63,7.07,6.42
			c1.85-7.87,5.73-14.4,5.31-23.78c3.25,0.25,6.05-3.53,9.03-5.29c10.02-1.87,16.8-5.89,23.18-10.13c5.4,0.35,11.96-0.39,15.38-2.29
			c3.21-1.8,6.51-4.27,10.25-6.28c6.95-3.63,14.73-6.74,21.12-9.77c3.9-1.8,8.04-4.27,11.24-5.01c3.95-0.88,8.94,0.92,12.9-0.35
			c3.76-1.2,6.86-5.61,10.69-7.76c4.2-2.4,8.64-2.68,10.94-6.42c-9.54-5.29-18.47-9.35-27.31-17.47c-4.38-3.95-8.89-8.5-14.19-12.88
			c-2.56-2.19-6.21-5.15-8.8-8.22c-2.91-3.49-5.89-8.15-9.01-12.49c-7.2-10.02-13.73-20.5-18.72-35.46
			c-0.9-2.65-1.25-6.39-2.52-8.79c-1.52-3.21-4.16-3.14-5.65-6.77c4.32-5.72,1.17-17.04,0.14-27.7c-0.37-4.16,0.34-7.16-0.56-9.88
			c-0.95-2.93-4.08-6.14-6.21-9.49c-3.9-6.07-6.37-9.84-10.81-14.26c-4.5-4.38-9.3-10.06-13.59-13.69c-0.76-3.67-1.5-7.3-2.22-10.94
			c0.37-1.62,6.37-1.09,2.95-3.46c-0.85-2.5,0.85-3.35,1.94-4.62c4.99,1.16,9.91,2.5,15.67,2.68c5.01,2.96,8.84,6.92,13.58,10.16
			c7.27,5.01,14.26,5.86,18.4,16.34c0.76,1.87,1.08,2.51,2.51,5.19c0.85,1.55,5.15,8.5,6,11.68c0.53,2.01-0.12,4.27,0.53,6.32
			c1.69,5.22,5.95,10.37,8.31,16.13c0.79,1.94,0.46,4.02,1.23,6.14c1.15,2.86,4.04,7.76,4.18,13.48c3,3.71,7.92,6.49,11.62,11.22
			c1.78,2.26,2.89,5.72,4.59,8.36c4.38,6.7,9.81,13.8,16.62,18.14c2.96,0.6,6.88-0.1,8.96,1.8c7.45,8.68,12.85,37.72,27.66,22.37
			c0.18-6.25-4.62-8.79-7.07-13.55c-1.22-2.33-1.92-5.96-3.33-9.31c-2.74-6.63-3.81-13.41-6.77-22.83
			c-0.78-2.58-2.19-4.73-2.93-7.34c-5.01-17.25-4.23-39.7-6.03-54.94c-1.41-11.4-4.45-19.12-10.95-22.05
			c-3.11-1.41-8.63-2.05-12.92-3.21c-10.3-2.82-17.22-3.11-20.52-15.95c1.04-2.86,4.13-4.06,6.77-5.58
			c8.68-4.87,12.81-4.09,21.66,0.07c4.25,2.01,8.87,3.35,11.1,4.98c3.56,2.51,7.22,7.55,10.96,11.36c3.56,3.63,7.41,7.2,10.13,10.87
			c3.14,4.27,5.47,10.2,8.03,14.78c6.93,12.42,14.17,23.78,20.24,39.48c2.05,5.19,4.01,9.35,6.93,12.88
			c7.96,9.53,12.26,29.22,19.14,41.07c7.62-3.07,15.72-3.18,21.65-7.02c4.11-2.72,7.57-8.47,10.92-13.48
			c4.55-6.7,8.56-11.43,11.56-17.89c-0.55-3.88,0.4-7.3,0.63-10.8c0.28-3-0.49-6.95,0.18-10.02c0.14-0.39,1.18-0.11,1.29-0.88
			c0.18-3.07,1.97-5.4,3.17-9.17c0.79-2.4,1.2-5.08,2.08-7.55c2.19-5.96,5.5-12.1,5.33-16.65c-0.39-6.85-5.86-16.16-9.42-21.63
			c-1.82-2.65-4.04-6-6.16-8.79c-3.67-4.87-8.59-8.22-8.84-18.88c3.48-3.28,5.22-8.26,9.71-9.03c4.52-0.71,20.78,10.69,24.52,14.47
			c2.96,2.96,4.78,7.59,7.44,8.47c-0.04,2.36,2.22,3.71,3.23,5.08c1.04,1.41,1.66,4.06,3.74,4.27c-1.38-5.86,0.16-11.36-1.22-16.8
			c-0.67-2.61-2.68-4.98-3.74-7.83c-1.08-2.93-1.22-6.32-2.49-8.75c-2.4-4.62-7.32-7.9-9.83-13.02c-2.72-5.57-3.56-11.71-7.23-17.78
			c-0.88-1.52-2.86-2.72-3.74-4.27c-3.88-7.02-9.3-16.58-3.44-24.28c4.32-0.49,7.71,3.17,11.24,5.68c3.11,2.22,7.64,4.73,10.27,7.94
			c2.19,2.72,3.56,7.44,5.8,10.97c2.1,3.42,4.92,6.63,7.07,9.99c4.45,7.13,7.23,15.35,11.15,22.76c3.95,7.94,8.26,15.42,11.88,23.32
			c3.6,7.94,7.74,15.42,13,21.66c5.56,18.84,16.87,28.16,27.17,41.71c6.03,7.9,11.63,17.22,18.17,25.62
			c4.31,5.47,10.27,10.9,19.11,12.67c3.37,2.86,9.07,6.6,12.77,6.03c-0.85-2.12-2.63-2.96-3.86-4.94c-2.58-4.02-3.39-7.34-6.54-10.8
			c-0.51-0.56-1.85-0.88-2.47-1.69c-0.34-0.32-0.05-1.84-0.41-2.01c-2.79-1.55-5.15-5.79-7.66-9.21c-1.13-1.55-2.61-2.79-3.72-4.23
			c-1.32-1.66-1.4-3.56-2.52-5.22c-2.1-3-5.22-5.43-6.77-8.65c-1.34-2.72-2.31-6.74-3.46-9.98c-4.92-13.65-7.55-30.8-11.5-49.68
			c2.75-12.84,4.43-25.3,6.93-36.91c0.37-1.62,0.93-2.79,1.27-4.55c0.21-1.02-0.37-3.35-0.16-4.23c0.85-2.51,3.18-4.45,4.34-7.2
			c0.5-1.17,0.67-3.07,1.24-4.52c2.86-7.27,5.96-14.33,11.57-21.49c11.93-7.52,20.87-17.04,32.46-24.73
			c4.8-3.18,19.76-6.32,30.22-7.27c23.43-2.12,46.59,6.63,66.6,8.43c22.28,11.05,44.6,20.78,66.97,31.86
			c1.24,0.6,1.99,1.52,3.32,2.19c2.08,1.02,4.22,1.91,6.37,3.04c1.32,0.7,2.38,0.07,3.76,0.7c4.13,1.8,7.83,4.34,12.09,6.17
			c4.36,1.94,9.79,3.04,13.99,5.15c5.15,2.58,10.27,6.95,15.12,10.58c0.74,0.57,1.75,0.92,2.49,1.59
			c6.12,5.4,14.31,11.11,21.35,16.51c3.81,7.16,8.88,16.58,14.19,23.57c3.21,4.34,7.44,10.27,11.47,14.18
			c3.81,3.67,8.33,6.25,9.95,10.13c3.83,8.79-0.25,26.32-12.77,22.41c4.11,9.95-6.28,15.17-17.36,13.97
			c-12.95-13.48-28.23-23.46-42.98-34.3c-6.21-1.55-11.77-2.96-20.18-3.92c-3.92-0.42-8.29-1.31-11.68-0.6
			c-4.9,1.02-10.37,5.15-15.81,7.34c-2.82,1.09-5.86,2.05-8.79,3.14c-2.36,0.85-5.26,1.16-7.48,2.12
			c-10.16,4.3-19.9,11.29-30.94,14.54c-10.58,3.1-27.03,6.95-38.81,7.52c-7.27,0.39-14.26-2.89-20.57-5.29
			c-6.53-2.47-14.78-4.02-23.53-6.14c-3.11-3.81-7.8-5.68-11.82-8.36c-3.78-2.51-7.09-6.46-12.17-6.85
			c2.12,3.92,4.83,7.06,7.76,9.84c1.24,5.12,4.01,8.61,6.79,12.21c7.44,9.63,19.72,15.17,30.08,24.03c4.13,3.6,9.6,8.68,14.15,12.95
			c2.29,2.12,3.32,4.31,5.4,5.33c5.45,2.68,12.84,1.59,18.74,3.49c3.35,3.49,8.4,5.89,12.07,9.77c3.1,3.32,9.77,9.92,15.22,11.22
			c4.22,1.06,8.84-0.35,13.04,0.35c1.66,0.28,4.87,1.37,6.92,2.22c2.36,0.88,3.92,2.58,5.86,3.81c3.95,2.61,9.21,5.12,11.06,8.54
			c1.46,2.68,0.83,9.6,1.39,13.97c0.28,1.87,1.17,4.31,1.09,5.5c-0.07,9.67-7.8,18.63-11.36,25.69c-2.86,0.46-2.79,2.86-6.67,2.68
			c-0.67,6.46-1.85,12.6-4.31,17.89c5.15,1.66,10.59,1.97,13.2,8.12c0.74,1.8-0.12,5.29,0.39,9.17c1.22,9.42,2.26,14.57,0,21.28
			c-1.38,4.06-4.73,6.53-4.73,8.79c17.94-0.42,24.63,15.81,39.38,20.11c1.48,1.41,4.71,0.18,5.54,2.51
			c3.42,6.6-2.08,10.62-4.16,14.96c-1.92,4.13-2.63,8.82-4.55,13.02c-1.85,3.99-3.71,7.73-5.54,11.72
			c1.06,7.97-3.14,15.63-5.45,23.15c0.86,3.92,0.62,7.94,0.26,12.03c-0.53,6.39-1.66,11.18-1.8,19.51
			c-0.18,6.95-1.38,16.73-0.88,24.35c0.33,5.15,2.29,10.3,1.67,15.35c-0.33,3.04-3.12,6.39-3.05,9.84
			c-4.66,3.56-8.84,7.76-14.31,11.26c-5.08,3.32-11.91,5.93-13.44,11.93c9.54,1.02,14.73,2.82,22.32-0.07
			c3.67-1.41,7.52-5.15,11.36-7.94c5.61-3.99,10.59-7.13,17.08-11.79c4.24-3.07,9.74-7.97,16.69-10.41
			c7.52-2.54,19.11-4.52,26.36-5.08c14.29-1.13,29.85,3.67,42.98,2.36c5.29-0.57,9.4-1.84,13.55-4.06
			c10.58-5.47,14.85-19.65,22.48-27.8c2.81-13.62,12.3-22.41,13.8-35.39c3.18-1.69,3.92-4.94,5.72-7.48
			c7.2-1.76,11.15-5.72,17.89-7.76c4.9,1.34,6.03,8.26,10.69,10.06c4.04-1.24,8.86-4.62,13.76-3.39c0,1.41,0.53,2.12,1.75,1.8
			c0.44,2.01,0.83,4.09,1.25,6.14c-0.1,0.14-1.37,0.18-1.39,0.28c-0.23,8.57,4.68,18.7,4.15,27.66
			C6169.21,644.65,6162.1,663.32,6156.03,682.16"/>
		<path class="st0" d="M1764.65,935.33c-125.34,0-212.27-71.59-212.27-191.81V654h167.5v88.21c0,30.73,20.46,47.35,44.77,47.35
			c30.7,0,48.58-20.5,48.58-63.97c0-35.78-11.48-67.75-34.5-90.79l-139.42-139.37c-48.6-48.59-76.73-103.6-76.73-204.65
			c0-135.53,69.07-209.7,202.07-209.7c125.34,0,198.2,71.59,198.2,191.81v89.52H1803v-88.25c0-26.85-12.76-47.28-38.35-47.28
			c-26.86,0-40.94,28.12-40.94,67.75c0,35.81,10.25,65.24,29.41,84.4l139.42,139.38c48.6,48.66,80.55,103.6,80.55,204.65
			C1973.09,856.04,1898.94,935.33,1764.65,935.33"/>
		<path class="st0" d="M2221.47,935.33c-125.34,0-204.62-71.59-204.62-191.81V272.89c0-120.22,79.28-191.81,204.62-191.81
			s204.6,71.59,204.6,191.81v89.52h-168.79v-84.4c0-29.43-15.34-46.05-35.8-46.05s-35.81,16.62-35.81,46.05v460.4
			c0,29.39,15.34,46.01,35.81,46.01s35.8-16.62,35.8-46.01V654h168.79v89.52C2426.07,863.73,2346.82,935.33,2221.47,935.33"/>
		<path class="st0" d="M2681.27,935.33c-125.32,0-208.44-71.59-208.44-191.81V272.89c0-120.22,83.12-191.81,208.44-191.81
			c125.31,0,208.45,71.59,208.45,191.81v470.63C2889.73,863.73,2806.58,935.33,2681.27,935.33 M2720.91,278.01
			c0-29.43-19.2-46.05-39.63-46.05c-20.47,0-39.66,16.62-39.66,46.05v460.4c0,29.39,19.19,46.01,39.66,46.01
			c20.43,0,39.63-16.62,39.63-46.01V278.01z"/>
		<path class="st0" d="M3206.12,925.13c-11.49-25.62-15.33-56.28-15.33-92.09V632.23c0-29.39-15.37-44.74-35.8-44.74h-42.2v337.64
			h-167.55V91.31h205.9c143.22,0,205.87,65.21,205.87,189.23v107.44c0,60.13-20.45,111.25-67.76,126.6
			c47.32,15.35,67.76,66.51,67.76,126.64v186.69c0,38.39,7.67,65.24,20.48,97.21H3206.12z M3190.79,320.21V285.7
			c0-30.7-15.37-47.32-39.64-47.32h-38.35v198.19h42.2c20.43,0,35.8-15.31,35.8-44.74V320.21z"/>
		<path class="st0" d="M3649.94,625.88h-57.55v299.25h-167.53V91.31h209.77c143.19,0,205.85,65.21,205.85,189.23v162.42
			C3840.48,559.33,3767.61,625.88,3649.94,625.88 M3674.23,285.7c0-30.7-15.33-47.32-39.61-47.32h-42.23v236.55h35.81
			c29.41,0,46.03-15.35,46.03-48.59V285.7z"/>
		<rect x="3890.65" y="91.31" class="st0" width="168.8" height="833.82"/>
		<path class="st0" d="M4323.07,935.33c-125.33,0-208.46-71.59-208.46-191.81V272.89c0-120.22,83.13-191.81,208.46-191.81
			c125.33,0,208.44,71.59,208.44,191.81v470.63C4531.51,863.73,4448.4,935.33,4323.07,935.33 M4362.69,278.01
			c0-29.43-19.16-46.05-39.62-46.05c-20.47,0-39.66,16.62-39.66,46.05v460.4c0,29.39,19.19,46.01,39.66,46.01
			c20.46,0,39.62-16.62,39.62-46.01V278.01z"/>
		<polygon class="st0" points="256.21,231.96 256.21,427.65 399.44,427.65 399.44,575.95 254.94,575.95 254.94,914.86 88.67,914.86 
			88.67,81.08 418.63,81.08 418.63,231.96 		"/>
		<path class="st0" d="M740.54,914.86l-90.8-300.52l-20.47,52.47v248.05H461.77V81.08h167.51v335.06
			c3.84-42.2,10.25-76.74,21.75-108.75l83.12-226.32H905.5L769.95,441.69l147.06,473.17H740.54z"/>
		<path class="st0" d="M1181.63,615.61h-57.53v299.25H956.57V81.08h209.73c143.22,0,205.91,65.24,205.91,189.27v162.42
			C1372.21,549.14,1299.3,615.61,1181.63,615.61 M1205.93,275.43c0-30.66-15.34-47.28-39.63-47.28h-42.2v236.58h35.8
			c29.41,0,46.03-15.35,46.03-48.59V275.43z"/>
	</g>
	<g>
		<g>
			<path class="st1" d="M410.85,1612.53H243.74v220.95h195.9l-18.71,137.06H87.65v-810.56h332.07v137.85H243.74v177.65h167.11
				V1612.53z"/>
			<path class="st1" d="M485.63,1970.54v-810.56h172.48c25.74,98.92,106.96,466.03,113.4,501.62h3.77
				c-8.63-107.84-14.18-255.3-14.18-368.44v-133.18h144.74v810.56H731.75c-16.81-77.12-105.42-496.53-110.64-522.46h-4.2
				c6.07,95.4,10.83,256.61,10.83,384.03v138.43H485.63z"/>
			<path class="st1" d="M1069.4,1297.83H951.37v-137.85h392.51v137.85h-118.81v672.71H1069.4V1297.83z"/>
			<path class="st1" d="M1714.2,1612.53h-167.11v220.95h195.9l-18.71,137.06h-333.28v-810.56h332.07v137.85h-175.97v177.65h167.11
				V1612.53z"/>
			<path class="st1" d="M1956.79,1618.18v352.36h-155.67v-810.56h202.25c135.84,0,202.98,59.68,202.98,201.41v29.15
				c0,115.53-46.13,149.87-80.89,166.28c50.42,24.36,74.1,61.42,74.1,174.52c0,78.26-1.21,196.58,5.58,239.2h-150.81
				c-10.08-36.64-9.36-142.17-9.36-245.63c0-91.2-10.44-106.73-69.8-106.73H1956.79z M1957.22,1495.34h19.3
				c52.07,0,73.31-16.45,73.31-91.9v-39.16c0-54.4-10.93-81.46-68.29-81.46h-24.33V1495.34z"/>
			<path class="st1" d="M2359.37,1297.83h-118.03v-137.85h392.51v137.85h-118.81v672.71h-155.67V1297.83z"/>
			<path class="st1" d="M2829.05,1777.63l-19.96,192.91h-158.95l114.61-810.56h232.45l117.34,810.56h-162.17l-22.33-192.91H2829.05z
				 M2916.81,1640.15c-11.52-103.72-27.68-261.48-35.26-339.1h-6.14c-2.79,56.5-22.03,238.87-32.77,339.1H2916.81z"/>
			<path class="st1" d="M3322.51,1159.98v810.56h-155.67v-810.56H3322.51z"/>
			<path class="st1" d="M3420.28,1970.54v-810.56h172.48c25.74,98.92,106.96,466.03,113.4,501.62h3.77
				c-8.63-107.84-14.18-255.3-14.18-368.44v-133.18h144.74v810.56h-174.09c-16.81-77.12-105.42-496.53-110.64-522.46h-4.2
				c6.07,95.4,10.83,256.61,10.83,384.03v138.43H3420.28z"/>
			<path class="st1" d="M4349.94,1712.29c0-125.45,1.21-303.35,3.22-402.79h-4.2c-16.94,162.17-52.76,490.53-74.89,661.04h-132.24
				c-17.89-177.23-52.86-511.56-69.8-663.1h-4.99c2,95.17,6.07,270.91,6.07,410.6v252.5h-141.46v-810.56h223.76
				c21.11,154.12,44.85,356.45,54.07,466.24h3.35c12.51-117.33,39.43-287.64,64.32-466.24h222.87v810.56h-150.09V1712.29z"/>
			<path class="st1" d="M4918.51,1612.53H4751.4v220.95h195.9l-18.71,137.06h-333.28v-810.56h332.07v137.85H4751.4v177.65h167.11
				V1612.53z"/>
			<path class="st1" d="M5005.43,1970.54v-810.56h172.48c25.74,98.92,106.96,466.03,113.4,501.62h3.77
				c-8.63-107.84-14.18-255.3-14.18-368.44v-133.18h144.74v810.56h-174.09c-16.81-77.12-105.42-496.53-110.64-522.46h-4.2
				c6.07,95.4,10.83,256.61,10.83,384.03v138.43H5005.43z"/>
			<path class="st1" d="M5611.07,1297.83h-118.03v-137.85h392.51v137.85h-118.82v672.71h-155.67V1297.83z"/>
		</g>
	</g>
	<rect x="87.63" y="1006.57" class="st1" width="6212.72" height="62.1"/>
</g>
</svg>
